<svg xmlns="http://www.w3.org/2000/svg" width="512" height="512" viewBox="0 0 512 512">
  <defs>
    <linearGradient id="gradient" x1="0%" y1="0%" x2="100%" y2="100%">
      <stop offset="0%" stop-color="#0d6efd" />
      <stop offset="100%" stop-color="#0dcaf0" />
    </linearGradient>
  </defs>
  <rect width="512" height="512" rx="128" fill="#212529" />
  <g transform="translate(96, 96) scale(0.625)">
    <path d="M256 32c-88.004 0-160 70.557-160 156.801C96 306.4 256 480 256 480s160-173.6 160-291.199C416 102.557 344.004 32 256 32zm0 212.801c-31.996 0-57.144-24.645-57.144-56 0-31.357 25.147-56 57.144-56s57.144 24.643 57.144 56c0 31.355-25.148 56-57.144 56z" fill="url(#gradient)" />
    <path d="M160 192c0-53.019 42.981-96 96-96s96 42.981 96 96-42.981 96-96 96-96-42.981-96-96zm72 0c0-13.255 10.745-24 24-24s24 10.745 24 24-10.745 24-24 24-24-10.745-24-24z" fill="#ffffff" opacity="0.2" />
    <circle cx="384" cy="128" r="32" fill="#0dcaf0" opacity="0.9" />
    <circle cx="128" cy="384" r="24" fill="#0d6efd" opacity="0.8" />
  </g>
</svg>